<?xml version="1.0" encoding="UTF-8" standalone="no"?>
<!-- Created with Inkscape (http://www.inkscape.org/) -->

<svg
   xmlns:dc="http://purl.org/dc/elements/1.1/"
   xmlns:cc="http://creativecommons.org/ns#"
   xmlns:rdf="http://www.w3.org/1999/02/22-rdf-syntax-ns#"
   xmlns:svg="http://www.w3.org/2000/svg"
   xmlns="http://www.w3.org/2000/svg"
   xmlns:sodipodi="http://sodipodi.sourceforge.net/DTD/sodipodi-0.dtd"
   xmlns:inkscape="http://www.inkscape.org/namespaces/inkscape"
   version="1.1"
   id="svg14711"
   xml:space="preserve"
   width="800"
   height="800"
   viewBox="0 0 800 800"
   sodipodi:docname="colored-lines-art-2-svg.svg"
   inkscape:version="0.92.4 (5da689c313, 2019-01-14)"><metadata
     id="metadata14717"><rdf:RDF><cc:Work
         rdf:about=""><dc:format>image/svg+xml</dc:format><dc:type
           rdf:resource="http://purl.org/dc/dcmitype/StillImage" /><dc:title></dc:title></cc:Work></rdf:RDF></metadata><defs
     id="defs14715"><clipPath
       clipPathUnits="userSpaceOnUse"
       id="clipPath14727"><path
         d="M 0,600 H 600 V 0 H 0 Z"
         id="path14725"
         inkscape:connector-curvature="0" /></clipPath><radialGradient
       fx="0"
       fy="0"
       cx="0"
       cy="0"
       r="1"
       gradientUnits="userSpaceOnUse"
       gradientTransform="matrix(299.72058,0,0,-299.72058,300.55908,300)"
       spreadMethod="pad"
       id="radialGradient14747"><stop
         style="stop-opacity:0;stop-color:#ffffff"
         offset="0"
         id="stop14741" /><stop
         style="stop-opacity:0;stop-color:#ffffff"
         offset="0.79908746"
         id="stop14743" /><stop
         style="stop-opacity:0;stop-color:#f8f8f8"
         offset="1"
         id="stop14745" /></radialGradient><linearGradient
       x1="0"
       y1="0"
       x2="1"
       y2="0"
       gradientUnits="userSpaceOnUse"
       gradientTransform="matrix(479.98486,0,0,-479.98486,4.6401367,390.80176)"
       spreadMethod="pad"
       id="linearGradient14775"><stop
         style="stop-opacity:1;stop-color:#1aaeec"
         offset="0"
         id="stop14763" /><stop
         style="stop-opacity:1;stop-color:#4253a7"
         offset="0.2"
         id="stop14765" /><stop
         style="stop-opacity:1;stop-color:#e70c8d"
         offset="0.4"
         id="stop14767" /><stop
         style="stop-opacity:1;stop-color:#e33c47"
         offset="0.6"
         id="stop14769" /><stop
         style="stop-opacity:1;stop-color:#f6e12c"
         offset="0.8"
         id="stop14771" /><stop
         style="stop-opacity:1;stop-color:#14ab69"
         offset="1"
         id="stop14773" /></linearGradient><linearGradient
       x1="0"
       y1="0"
       x2="1"
       y2="0"
       gradientUnits="userSpaceOnUse"
       gradientTransform="matrix(479.98486,0,0,-479.98486,4.6401367,390.80176)"
       spreadMethod="pad"
       id="linearGradient14803"><stop
         style="stop-opacity:1;stop-color:#1aaeec"
         offset="0"
         id="stop14791" /><stop
         style="stop-opacity:1;stop-color:#4253a7"
         offset="0.2"
         id="stop14793" /><stop
         style="stop-opacity:1;stop-color:#e70c8d"
         offset="0.4"
         id="stop14795" /><stop
         style="stop-opacity:1;stop-color:#e33c47"
         offset="0.6"
         id="stop14797" /><stop
         style="stop-opacity:1;stop-color:#f6e12c"
         offset="0.8"
         id="stop14799" /><stop
         style="stop-opacity:1;stop-color:#14ab69"
         offset="1"
         id="stop14801" /></linearGradient></defs><sodipodi:namedview

     borderopacity="1"
     objecttolerance="10"
     gridtolerance="10"
     guidetolerance="10"
     inkscape:pageopacity="0"
     inkscape:pageshadow="2"
     inkscape:window-width="1920"
     inkscape:window-height="1018"
     id="namedview14713"
     showgrid="false"
     inkscape:zoom="0.67873984"
     inkscape:cx="425.42373"
     inkscape:cy="354.23729"
     inkscape:window-x="-8"
     inkscape:window-y="-8"
     inkscape:window-maximized="1"
     inkscape:current-layer="g14719" /><g
     id="g14719"
     inkscape:groupmode="layer"
     inkscape:label="abstract-lines-1014-publicdomainvectors.org"
     transform="matrix(1.3333333,0,0,-1.3333333,0,800)"><g
       id="g14721"><g
         id="g14723"
         clip-path="url(#clipPath14727)"><g
           id="g14729"><g
             id="g14731"><g
               id="g14737"><g
                 id="g14739"><path
                   d="M 600,0 H 1.118 V 600 H 600 Z"
                   style="fill:url(#radialGradient14747);stroke:none"
                   id="path14749"
                   inkscape:connector-curvature="0" /></g></g></g></g><g
           id="g14751"><g
             id="g14753"><g
               id="g14759"><g
                 id="g14761"><path
                   d="m 436.607,310.48 c -10.216,1.659 -21.461,-0.831 -32.587,-7.785 -12.158,-7.607 -23.559,-19.778 -38.426,-26.024 -36.899,-15.464 -99.208,-8.309 -173.475,34.511 -0.032,-1.557 -0.074,-3.108 -0.106,-4.656 74.979,-42.025 137.545,-48.313 174.517,-32.312 14.859,6.444 26.128,18.864 38.166,26.557 10.984,7.012 22.102,9.551 32.205,7.967 -0.097,0.582 -0.196,1.162 -0.294,1.742 m -5.81,2.777 c -10.859,0.347 -22.565,-3.927 -34.013,-12.373 -12.168,-8.985 -25.03,-19.362 -41.356,-24.049 -18.964,-5.433 -42.807,-5.712 -70.127,0.604 -33.911,7.853 -74.539,26.149 -118.9,56.352 -0.156,-1.648 -0.308,-3.294 -0.446,-4.938 44.906,-29.795 85.887,-47.616 120.01,-55.027 27.463,-5.958 51.383,-5.341 70.386,0.363 16.333,4.914 29.115,15.52 41.159,24.686 11.297,8.59 22.89,12.882 33.629,12.613 -0.116,0.59 -0.229,1.18 -0.342,1.769 m 4.914,-20.805 c -9.334,-0.163 -19.395,-4.468 -29.053,-12.961 -10.972,-9.658 -23.339,-22.388 -39.65,-29.787 -41.718,-18.88 -112.585,-15.607 -200.683,27.268 -0.099,-1.508 -0.219,-3.012 -0.337,-4.511 88.886,-41.98 160.02,-44.357 201.817,-24.939 16.321,7.597 28.705,20.355 39.609,30.028 9.543,8.457 19.457,12.812 28.664,13.025 -0.121,0.628 -0.245,1.253 -0.367,1.877 m -13.172,6.096 c -10.697,-3.295 -20.859,-13.39 -32.375,-23.214 -12.889,-10.983 -29.781,-18.973 -49.885,-22.489 -24.097,-4.201 -54.145,-2.21 -88.621,7.801 -44.067,12.822 -96.936,39.176 -154.665,81.269 -0.428,-1.739 -0.836,-3.48 -1.267,-5.215 58.562,-41.685 111.966,-67.521 156.364,-79.815 34.685,-9.599 64.856,-11.194 89.023,-6.667 20.151,3.786 37.063,12.007 49.966,23.172 11.437,9.906 21.442,19.947 31.982,23.275 -0.173,0.629 -0.348,1.257 -0.522,1.883 m -35.138,20.969 c -13.424,-6.931 -27.891,-14.085 -45.038,-15.715 -19.634,-1.854 -43.779,2.294 -70.682,13.554 -33.175,13.9 -71.628,38.962 -111.779,75.435 C 108.717,439.306 55.743,503.362 9.468,580.334 7.956,578.79 6.24,577.376 4.64,575.876 52.413,498.157 106.815,433.915 158.942,387.596 c 40.812,-36.218 79.714,-60.891 113.173,-74.381 27.096,-10.915 51.343,-14.724 71.014,-12.569 17.131,1.886 31.507,9.309 44.805,16.542 -0.182,0.774 -0.36,1.549 -0.533,2.329 M 482.98,218.206 c -2.705,12.171 -6.47,22.79 -11.107,31.209 -4.727,8.567 -10.518,15.092 -16.994,18.801 -6.784,3.876 -14.525,4.738 -22.48,2.076 -8.674,-2.911 -17.662,-10.885 -27.914,-20.392 0.165,-0.667 0.328,-1.335 0.484,-2.005 10.252,9.45 19.201,17.405 27.798,20.355 7.87,2.692 15.525,1.887 22.228,-1.931 6.407,-3.657 12.136,-10.123 16.806,-18.637 4.588,-8.376 8.307,-18.956 10.971,-31.092 0.07,0.541 0.139,1.08 0.208,1.616 m -13.261,43.939 c -10.873,16.667 -27.102,24.094 -43.69,16.92 -9.432,-4.092 -18.716,-14.19 -30.146,-24.237 -13.459,-11.822 -30.92,-21.728 -52.035,-27.309 0.208,-0.795 0.416,-1.587 0.615,-2.379 21.143,5.817 38.584,15.923 52.052,27.759 11.403,10.031 20.667,20.046 29.999,24.171 16.386,7.224 32.437,-0.072 43.179,-16.603 0.011,0.561 0.02,1.12 0.026,1.678 m 8.29,-8.523 c -4.383,10.551 -9.898,19.338 -16.259,25.586 -6.674,6.547 -14.483,10.467 -22.812,11.011 -8.969,0.577 -18.731,-2.798 -28.2,-10.287 -10.638,-8.424 -21.976,-21.787 -37.336,-30.015 0.263,-0.697 0.52,-1.395 0.774,-2.09 15.352,8.4 26.704,21.698 37.262,30.145 9.351,7.474 18.977,10.895 27.829,10.373 8.229,-0.493 15.951,-4.351 22.55,-10.829 6.299,-6.19 11.758,-14.921 16.093,-25.417 0.033,0.509 0.068,1.017 0.099,1.523 m -36.216,16.433 c -7.9,-0.058 -16.488,-4.113 -25.232,-11.421 -10.218,-8.549 -21.855,-20.939 -37.174,-30.433 -18.215,-11.273 -41.581,-19.581 -69.53,-22.647 -35.153,-3.843 -79.399,0.345 -131.266,15.747 -0.143,-1.329 -0.301,-2.655 -0.462,-3.98 52.279,-14.912 96.77,-18.642 132.062,-14.434 28.03,3.35 51.424,11.891 69.658,23.281 15.305,9.569 26.964,21.868 37.169,30.394 8.714,7.276 17.22,11.381 25.034,11.485 -0.085,0.671 -0.171,1.34 -0.259,2.008 m -17.496,14.194 c -9.765,-4.124 -19.135,-14.628 -30.767,-24.667 -13.551,-11.685 -31.2,-20.914 -52.38,-25.723 -57.193,-12.946 -152.509,6.63 -268.531,81.281 -0.494,-1.718 -1.014,-3.43 -1.54,-5.137 117.496,-73.77 213.391,-92.242 270.755,-78.596 21.215,5.061 38.853,14.519 52.411,26.264 11.591,10.051 20.929,20.46 30.571,24.615 -0.17,0.655 -0.343,1.311 -0.519,1.963 m -4.942,14.27 c -10.941,-4.166 -21.021,-15.7 -33.191,-25.001 -13.693,-10.455 -31.527,-17.69 -52.65,-20.21 -25.471,-3.027 -57.098,0.631 -93.227,12.838 -46.405,15.699 -101.713,45.969 -161.529,92.841 -0.536,-1.776 -1.086,-3.547 -1.577,-5.33 60.733,-46.522 116.678,-76.261 163.462,-91.426 36.374,-11.773 68.143,-15.023 93.695,-11.656 21.176,2.803 39.036,10.283 52.747,20.933 12.145,9.443 22.054,20.931 32.833,25.123 -0.188,0.63 -0.375,1.259 -0.563,1.888 m 32.854,4.531 c -8.508,5.338 -18.256,7.488 -28.43,5.7 -11.204,-1.979 -22.564,-9.769 -34.066,-19.589 -25.613,-21.85 -70.638,-30.933 -127.5,-13.26 0.177,-1.28 0.346,-2.555 0.523,-3.825 57.193,-16.952 102.403,-7.427 127.857,14.994 11.345,10.003 22.571,17.81 33.636,19.847 10.056,1.844 19.702,-0.235 28.124,-5.493 -0.048,0.544 -0.097,1.085 -0.144,1.626 m 23.565,-33.299 c -5.158,10.269 -11.52,18.669 -18.751,24.371 -7.697,6.064 -16.607,9.223 -26.015,8.708 -10.278,-0.571 -21.327,-5.566 -31.868,-15.092 -11.471,-10.376 -24.819,-21.229 -41.827,-26.782 0.299,-0.816 0.597,-1.628 0.893,-2.435 17.036,5.788 30.382,16.862 41.792,27.331 10.371,9.506 21.268,14.521 31.408,15.147 9.297,0.567 18.112,-2.523 25.729,-8.512 7.163,-5.64 13.468,-13.974 18.577,-24.182 0.02,0.483 0.04,0.966 0.062,1.446 m 8.851,-10.409 c -4.048,12.521 -9.281,23.581 -15.496,32.4 -6.557,9.299 -14.426,16.396 -23.146,20.407 -9.471,4.349 -20.182,5.134 -31.196,1.712 -12.156,-3.785 -23.607,-14.219 -36.447,-22.295 0.289,-0.796 0.582,-1.587 0.878,-2.372 12.732,8.254 24.028,18.929 36.059,22.8 10.895,3.497 21.503,2.788 30.884,-1.474 8.647,-3.936 16.452,-10.957 22.956,-20.184 6.17,-8.76 11.365,-19.765 15.381,-32.237 0.041,0.416 0.082,0.832 0.127,1.243 m -2.674,-9.002 c -3.944,11.68 -9.029,21.774 -15.028,29.521 -6.278,8.101 -13.759,13.866 -21.937,16.471 -8.797,2.798 -18.616,1.98 -28.469,-2.948 -10.826,-5.424 -20.676,-18.205 -33.75,-27.178 0.296,-0.678 0.59,-1.352 0.881,-2.023 13.069,9.134 22.83,21.854 33.489,27.291 9.713,4.944 19.406,5.812 28.095,3.084 8.09,-2.548 15.495,-8.244 21.708,-16.276 5.945,-7.689 10.982,-17.733 14.887,-29.363 0.04,0.476 0.083,0.949 0.124,1.421 m -26.748,35.273 c -7.473,4.988 -16.041,6.968 -24.941,5.279 -9.664,-1.844 -19.666,-8.564 -29.623,-18.554 -11.614,-11.654 -26.515,-22.191 -44.832,-28.357 -21.744,-7.311 -49.18,-9.551 -81.125,-4.839 0.162,-1.112 0.33,-2.217 0.497,-3.318 32.094,-4.329 59.61,-1.741 81.397,5.844 18.338,6.393 33.197,17.161 44.833,28.754 9.923,9.887 19.763,16.675 29.293,18.558 8.786,1.731 17.253,-0.192 24.639,-5.109 -0.046,0.582 -0.092,1.163 -0.138,1.742 m -5,13.576 c -8.502,4.491 -18.167,5.673 -28.129,2.872 -10.949,-3.09 -21.47,-12.92 -33.049,-22.674 -27.072,-22.77 -75.447,-31.24 -136.437,-12.387 0.151,-1.277 0.305,-2.55 0.45,-3.818 61.351,-18.096 109.818,-8.968 136.925,14.202 11.485,9.833 21.828,19.68 32.623,22.808 9.834,2.84 19.387,1.725 27.795,-2.692 -0.059,0.564 -0.119,1.127 -0.178,1.689 m 9.457,-13.629 c -14.605,12.907 -34.945,13.431 -53.816,-2.627 -11.08,-9.446 -23.258,-22.223 -39.421,-29.375 -18.878,-8.344 -42.859,-12.284 -70.863,-10.104 -0.218,1.051 -0.427,2.109 -0.65,3.169 27.892,-2.532 51.813,1.09 70.658,9.182 16.145,6.939 28.293,19.627 39.479,29.039 19.157,16.092 39.747,15.439 54.523,2.372 0.03,-0.551 0.059,-1.103 0.09,-1.656"
                   style="fill:url(#linearGradient14775);fill-rule:evenodd;stroke:none"
                   id="path14777"
                   inkscape:connector-curvature="0" /></g></g></g></g><g
           id="g14779"><g
             id="g14781"><g
               id="g14787"><g
                 id="g14789"><path
                   d="m 436.607,310.48 c -10.216,1.659 -21.461,-0.831 -32.587,-7.785 -12.158,-7.607 -23.559,-19.778 -38.426,-26.024 -36.899,-15.464 -99.208,-8.309 -173.475,34.511 -0.032,-1.557 -0.074,-3.108 -0.106,-4.656 74.979,-42.025 137.545,-48.313 174.517,-32.312 14.859,6.444 26.128,18.864 38.166,26.557 10.984,7.012 22.102,9.551 32.205,7.967 -0.097,0.582 -0.196,1.162 -0.294,1.742 m -5.81,2.777 c -10.859,0.347 -22.565,-3.927 -34.013,-12.373 -12.168,-8.985 -25.03,-19.362 -41.356,-24.049 -18.964,-5.433 -42.807,-5.712 -70.127,0.604 -33.911,7.853 -74.539,26.149 -118.9,56.352 -0.156,-1.648 -0.308,-3.294 -0.446,-4.938 44.906,-29.795 85.887,-47.616 120.01,-55.027 27.463,-5.958 51.383,-5.341 70.386,0.363 16.333,4.914 29.115,15.52 41.159,24.686 11.297,8.59 22.89,12.882 33.629,12.613 -0.116,0.59 -0.229,1.18 -0.342,1.769 m 4.914,-20.805 c -9.334,-0.163 -19.395,-4.468 -29.053,-12.961 -10.972,-9.658 -23.339,-22.388 -39.65,-29.787 -41.718,-18.88 -112.585,-15.607 -200.683,27.268 -0.099,-1.508 -0.219,-3.012 -0.337,-4.511 88.886,-41.98 160.02,-44.357 201.817,-24.939 16.321,7.597 28.705,20.355 39.609,30.028 9.543,8.457 19.457,12.812 28.664,13.025 -0.121,0.628 -0.245,1.253 -0.367,1.877 m -13.172,6.096 c -10.697,-3.295 -20.859,-13.39 -32.375,-23.214 -12.889,-10.983 -29.781,-18.973 -49.885,-22.489 -24.097,-4.201 -54.145,-2.21 -88.621,7.801 -44.067,12.822 -96.936,39.176 -154.665,81.269 -0.428,-1.739 -0.836,-3.48 -1.267,-5.215 58.562,-41.685 111.966,-67.521 156.364,-79.815 34.685,-9.599 64.856,-11.194 89.023,-6.667 20.151,3.786 37.063,12.007 49.966,23.172 11.437,9.906 21.442,19.947 31.982,23.275 -0.173,0.629 -0.348,1.257 -0.522,1.883 m -35.138,20.969 c -13.424,-6.931 -27.891,-14.085 -45.038,-15.715 -19.634,-1.854 -43.779,2.294 -70.682,13.554 -33.175,13.9 -71.628,38.962 -111.779,75.435 C 108.717,439.306 55.743,503.362 9.468,580.334 7.956,578.79 6.24,577.376 4.64,575.876 52.413,498.157 106.815,433.915 158.942,387.596 c 40.812,-36.218 79.714,-60.891 113.173,-74.381 27.096,-10.915 51.343,-14.724 71.014,-12.569 17.131,1.886 31.507,9.309 44.805,16.542 -0.182,0.774 -0.36,1.549 -0.533,2.329 M 482.98,218.206 c -2.705,12.171 -6.47,22.79 -11.107,31.209 -4.727,8.567 -10.518,15.092 -16.994,18.801 -6.784,3.876 -14.525,4.738 -22.48,2.076 -8.674,-2.911 -17.662,-10.885 -27.914,-20.392 0.165,-0.667 0.328,-1.335 0.484,-2.005 10.252,9.45 19.201,17.405 27.798,20.355 7.87,2.692 15.525,1.887 22.228,-1.931 6.407,-3.657 12.136,-10.123 16.806,-18.637 4.588,-8.376 8.307,-18.956 10.971,-31.092 0.07,0.541 0.139,1.08 0.208,1.616 m -13.261,43.939 c -10.873,16.667 -27.102,24.094 -43.69,16.92 -9.432,-4.092 -18.716,-14.19 -30.146,-24.237 -13.459,-11.822 -30.92,-21.728 -52.035,-27.309 0.208,-0.795 0.416,-1.587 0.615,-2.379 21.143,5.817 38.584,15.923 52.052,27.759 11.403,10.031 20.667,20.046 29.999,24.171 16.386,7.224 32.437,-0.072 43.179,-16.603 0.011,0.561 0.02,1.12 0.026,1.678 m 8.29,-8.523 c -4.383,10.551 -9.898,19.338 -16.259,25.586 -6.674,6.547 -14.483,10.467 -22.812,11.011 -8.969,0.577 -18.731,-2.798 -28.2,-10.287 -10.638,-8.424 -21.976,-21.787 -37.336,-30.015 0.263,-0.697 0.52,-1.395 0.774,-2.09 15.352,8.4 26.704,21.698 37.262,30.145 9.351,7.474 18.977,10.895 27.829,10.373 8.229,-0.493 15.951,-4.351 22.55,-10.829 6.299,-6.19 11.758,-14.921 16.093,-25.417 0.033,0.509 0.068,1.017 0.099,1.523 m -36.216,16.433 c -7.9,-0.058 -16.488,-4.113 -25.232,-11.421 -10.218,-8.549 -21.855,-20.939 -37.174,-30.433 -18.215,-11.273 -41.581,-19.581 -69.53,-22.647 -35.153,-3.843 -79.399,0.345 -131.266,15.747 -0.143,-1.329 -0.301,-2.655 -0.462,-3.98 52.279,-14.912 96.77,-18.642 132.062,-14.434 28.03,3.35 51.424,11.891 69.658,23.281 15.305,9.569 26.964,21.868 37.169,30.394 8.714,7.276 17.22,11.381 25.034,11.485 -0.085,0.671 -0.171,1.34 -0.259,2.008 m -17.496,14.194 c -9.765,-4.124 -19.135,-14.628 -30.767,-24.667 -13.551,-11.685 -31.2,-20.914 -52.38,-25.723 -57.193,-12.946 -152.509,6.63 -268.531,81.281 -0.494,-1.718 -1.014,-3.43 -1.54,-5.137 117.496,-73.77 213.391,-92.242 270.755,-78.596 21.215,5.061 38.853,14.519 52.411,26.264 11.591,10.051 20.929,20.46 30.571,24.615 -0.17,0.655 -0.343,1.311 -0.519,1.963 m -4.942,14.27 c -10.941,-4.166 -21.021,-15.7 -33.191,-25.001 -13.693,-10.455 -31.527,-17.69 -52.65,-20.21 -25.471,-3.027 -57.098,0.631 -93.227,12.838 -46.405,15.699 -101.713,45.969 -161.529,92.841 -0.536,-1.776 -1.086,-3.547 -1.577,-5.33 60.733,-46.522 116.678,-76.261 163.462,-91.426 36.374,-11.773 68.143,-15.023 93.695,-11.656 21.176,2.803 39.036,10.283 52.747,20.933 12.145,9.443 22.054,20.931 32.833,25.123 -0.188,0.63 -0.375,1.259 -0.563,1.888 m 32.854,4.531 c -8.508,5.338 -18.256,7.488 -28.43,5.7 -11.204,-1.979 -22.564,-9.769 -34.066,-19.589 -25.613,-21.85 -70.638,-30.933 -127.5,-13.26 0.177,-1.28 0.346,-2.555 0.523,-3.825 57.193,-16.952 102.403,-7.427 127.857,14.994 11.345,10.003 22.571,17.81 33.636,19.847 10.056,1.844 19.702,-0.235 28.124,-5.493 -0.048,0.544 -0.097,1.085 -0.144,1.626 m 23.565,-33.299 c -5.158,10.269 -11.52,18.669 -18.751,24.371 -7.697,6.064 -16.607,9.223 -26.015,8.708 -10.278,-0.571 -21.327,-5.566 -31.868,-15.092 -11.471,-10.376 -24.819,-21.229 -41.827,-26.782 0.299,-0.816 0.597,-1.628 0.893,-2.435 17.036,5.788 30.382,16.862 41.792,27.331 10.371,9.506 21.268,14.521 31.408,15.147 9.297,0.567 18.112,-2.523 25.729,-8.512 7.163,-5.64 13.468,-13.974 18.577,-24.182 0.02,0.483 0.04,0.966 0.062,1.446 m 8.851,-10.409 c -4.048,12.521 -9.281,23.581 -15.496,32.4 -6.557,9.299 -14.426,16.396 -23.146,20.407 -9.471,4.349 -20.182,5.134 -31.196,1.712 -12.156,-3.785 -23.607,-14.219 -36.447,-22.295 0.289,-0.796 0.582,-1.587 0.878,-2.372 12.732,8.254 24.028,18.929 36.059,22.8 10.895,3.497 21.503,2.788 30.884,-1.474 8.647,-3.936 16.452,-10.957 22.956,-20.184 6.17,-8.76 11.365,-19.765 15.381,-32.237 0.041,0.416 0.082,0.832 0.127,1.243 m -2.674,-9.002 c -3.944,11.68 -9.029,21.774 -15.028,29.521 -6.278,8.101 -13.759,13.866 -21.937,16.471 -8.797,2.798 -18.616,1.98 -28.469,-2.948 -10.826,-5.424 -20.676,-18.205 -33.75,-27.178 0.296,-0.678 0.59,-1.352 0.881,-2.023 13.069,9.134 22.83,21.854 33.489,27.291 9.713,4.944 19.406,5.812 28.095,3.084 8.09,-2.548 15.495,-8.244 21.708,-16.276 5.945,-7.689 10.982,-17.733 14.887,-29.363 0.04,0.476 0.083,0.949 0.124,1.421 m -26.748,35.273 c -7.473,4.988 -16.041,6.968 -24.941,5.279 -9.664,-1.844 -19.666,-8.564 -29.623,-18.554 -11.614,-11.654 -26.515,-22.191 -44.832,-28.357 -21.744,-7.311 -49.18,-9.551 -81.125,-4.839 0.162,-1.112 0.33,-2.217 0.497,-3.318 32.094,-4.329 59.61,-1.741 81.397,5.844 18.338,6.393 33.197,17.161 44.833,28.754 9.923,9.887 19.763,16.675 29.293,18.558 8.786,1.731 17.253,-0.192 24.639,-5.109 -0.046,0.582 -0.092,1.163 -0.138,1.742 m -5,13.576 c -8.502,4.491 -18.167,5.673 -28.129,2.872 -10.949,-3.09 -21.47,-12.92 -33.049,-22.674 -27.072,-22.77 -75.447,-31.24 -136.437,-12.387 0.151,-1.277 0.305,-2.55 0.45,-3.818 61.351,-18.096 109.818,-8.968 136.925,14.202 11.485,9.833 21.828,19.68 32.623,22.808 9.834,2.84 19.387,1.725 27.795,-2.692 -0.059,0.564 -0.119,1.127 -0.178,1.689 m 9.457,-13.629 c -14.605,12.907 -34.945,13.431 -53.816,-2.627 -11.08,-9.446 -23.258,-22.223 -39.421,-29.375 -18.878,-8.344 -42.859,-12.284 -70.863,-10.104 -0.218,1.051 -0.427,2.109 -0.65,3.169 27.892,-2.532 51.813,1.09 70.658,9.182 16.145,6.939 28.293,19.627 39.479,29.039 19.157,16.092 39.747,15.439 54.523,2.372 0.03,-0.551 0.059,-1.103 0.09,-1.656"
                   style="fill:url(#linearGradient14803);fill-rule:evenodd;stroke:none"
                   id="path14805"
                   inkscape:connector-curvature="0" /></g></g></g></g></g></g></g></svg>